<?xml version="1.0" encoding="UTF-8" standalone="no"?>
<!-- Created with Inkscape (http://www.inkscape.org/) -->

<svg
   xmlns:dc="http://purl.org/dc/elements/1.1/"
   xmlns:cc="http://creativecommons.org/ns#"
   xmlns:rdf="http://www.w3.org/1999/02/22-rdf-syntax-ns#"
   xmlns:svg="http://www.w3.org/2000/svg"
   xmlns="http://www.w3.org/2000/svg"
   xmlns:sodipodi="http://sodipodi.sourceforge.net/DTD/sodipodi-0.dtd"
   xmlns:inkscape="http://www.inkscape.org/namespaces/inkscape"
   version="1.1"
   id="svg3680"
   xml:space="preserve"
   width="500"
   height="500"
   viewBox="0 0 500 500"
   sodipodi:docname="PLC Programmer Box Layout.svg"
   inkscape:version="0.92.1 r15371"><metadata
     id="metadata3686"><rdf:RDF><cc:Work
         rdf:about=""><dc:format>image/svg+xml</dc:format><dc:type
           rdf:resource="http://purl.org/dc/dcmitype/StillImage" /><dc:title></dc:title></cc:Work></rdf:RDF></metadata><defs
     id="defs3684"><clipPath
       clipPathUnits="userSpaceOnUse"
       id="clipPath3696"><path
         d="M 0,1.2207e-4 H 720 V 540.00012 H 0 Z"
         id="path3694"
         inkscape:connector-curvature="0"
         style="clip-rule:evenodd" /></clipPath><clipPath
       clipPathUnits="userSpaceOnUse"
       id="clipPath3714"><path
         d="M -1.4817e-5,540 H 720 V 1.8311e-4 H -1.4817e-5"
         id="path3712"
         inkscape:connector-curvature="0"
         style="clip-rule:evenodd" /></clipPath><clipPath
       clipPathUnits="userSpaceOnUse"
       id="clipPath3724"><path
         d="M -1.4817e-5,540 H 720 V 1.8311e-4 H -1.4817e-5"
         id="path3722"
         inkscape:connector-curvature="0"
         style="clip-rule:evenodd" /></clipPath><clipPath
       clipPathUnits="userSpaceOnUse"
       id="clipPath3734"><path
         d="M 7.08e-7,540 H 720 V 1.2207e-4 H 7.08e-7"
         id="path3732"
         inkscape:connector-curvature="0"
         style="clip-rule:evenodd" /></clipPath><clipPath
       clipPathUnits="userSpaceOnUse"
       id="clipPath3744"><path
         d="M 7.08e-7,540 H 720 V 1.2207e-4 H 7.08e-7"
         id="path3742"
         inkscape:connector-curvature="0"
         style="clip-rule:evenodd" /></clipPath><radialGradient
       fx="0"
       fy="0"
       cx="0"
       cy="0"
       r="1"
       gradientUnits="userSpaceOnUse"
       gradientTransform="matrix(48.283,0,0,48.283,393.96,218.4)"
       spreadMethod="pad"
       id="radialGradient3780"><stop
         style="stop-opacity:1;stop-color:#a00000"
         offset="0"
         id="stop3774" /><stop
         style="stop-opacity:1;stop-color:#e60000"
         offset="0.5"
         id="stop3776" /><stop
         style="stop-opacity:1;stop-color:#ff0000"
         offset="1"
         id="stop3778" /></radialGradient><radialGradient
       fx="0"
       fy="0"
       cx="0"
       cy="0"
       r="1"
       gradientUnits="userSpaceOnUse"
       gradientTransform="matrix(48.369,0,0,48.369,482.16,218.16)"
       spreadMethod="pad"
       id="radialGradient3798"><stop
         style="stop-opacity:1;stop-color:#a00000"
         offset="0"
         id="stop3792" /><stop
         style="stop-opacity:1;stop-color:#e60000"
         offset="0.5"
         id="stop3794" /><stop
         style="stop-opacity:1;stop-color:#ff0000"
         offset="1"
         id="stop3796" /></radialGradient><radialGradient
       fx="0"
       fy="0"
       cx="0"
       cy="0"
       r="1"
       gradientUnits="userSpaceOnUse"
       gradientTransform="matrix(48.283,0,0,48.283,393.96,154.8)"
       spreadMethod="pad"
       id="radialGradient3816"><stop
         style="stop-opacity:1;stop-color:#a00000"
         offset="0"
         id="stop3810" /><stop
         style="stop-opacity:1;stop-color:#e60000"
         offset="0.5"
         id="stop3812" /><stop
         style="stop-opacity:1;stop-color:#ff0000"
         offset="1"
         id="stop3814" /></radialGradient><radialGradient
       fx="0"
       fy="0"
       cx="0"
       cy="0"
       r="1"
       gradientUnits="userSpaceOnUse"
       gradientTransform="matrix(48.369,0,0,48.369,482.16,154.44)"
       spreadMethod="pad"
       id="radialGradient3834"><stop
         style="stop-opacity:1;stop-color:#a00000"
         offset="0"
         id="stop3828" /><stop
         style="stop-opacity:1;stop-color:#e60000"
         offset="0.5"
         id="stop3830" /><stop
         style="stop-opacity:1;stop-color:#ff0000"
         offset="1"
         id="stop3832" /></radialGradient><radialGradient
       fx="0"
       fy="0"
       cx="0"
       cy="0"
       r="1"
       gradientUnits="userSpaceOnUse"
       gradientTransform="matrix(48.369,0,0,48.369,437.64,332.4)"
       spreadMethod="pad"
       id="radialGradient3852"><stop
         style="stop-opacity:1;stop-color:#a00000"
         offset="0"
         id="stop3846" /><stop
         style="stop-opacity:1;stop-color:#e60000"
         offset="0.5"
         id="stop3848" /><stop
         style="stop-opacity:1;stop-color:#ff0000"
         offset="1"
         id="stop3850" /></radialGradient><clipPath
       clipPathUnits="userSpaceOnUse"
       id="clipPath3888"><path
         d="M 1.0729e-5,0 H 720.00001 V 540 H 1.0729e-5 Z"
         id="path3886"
         inkscape:connector-curvature="0"
         style="clip-rule:evenodd" /></clipPath><clipPath
       clipPathUnits="userSpaceOnUse"
       id="clipPath3916"><path
         d="M 1.0729e-5,0 H 720.00001 V 540 H 1.0729e-5 Z"
         id="path3914"
         inkscape:connector-curvature="0"
         style="clip-rule:evenodd" /></clipPath><clipPath
       clipPathUnits="userSpaceOnUse"
       id="clipPath3928"><path
         d="M 1.0729e-5,0 H 720.00001 V 540 H 1.0729e-5 Z"
         id="path3926"
         inkscape:connector-curvature="0"
         style="clip-rule:evenodd" /></clipPath><clipPath
       clipPathUnits="userSpaceOnUse"
       id="clipPath3940"><path
         d="M -3.146e-6,540 H 720 V 1.2207e-4 H -1.2988e-5"
         id="path3938"
         inkscape:connector-curvature="0"
         style="clip-rule:evenodd" /></clipPath><clipPath
       clipPathUnits="userSpaceOnUse"
       id="clipPath3950"><path
         d="M -3.146e-6,540 H 720 V 1.2207e-4 H -1.2988e-5"
         id="path3948"
         inkscape:connector-curvature="0"
         style="clip-rule:evenodd" /></clipPath><clipPath
       clipPathUnits="userSpaceOnUse"
       id="clipPath3960"><path
         d="M 1.0729e-5,0 H 720.00001 V 540 H 1.0729e-5 Z"
         id="path3958"
         inkscape:connector-curvature="0"
         style="clip-rule:evenodd" /></clipPath><clipPath
       clipPathUnits="userSpaceOnUse"
       id="clipPath3976"><path
         d="M 1.0729e-5,0 H 720.00001 V 540 H 1.0729e-5 Z"
         id="path3974"
         inkscape:connector-curvature="0"
         style="clip-rule:evenodd" /></clipPath></defs><sodipodi:namedview
     pagecolor="#ffffff"
     bordercolor="#666666"
     borderopacity="1"
     objecttolerance="10"
     gridtolerance="10"
     guidetolerance="10"
     inkscape:pageopacity="0"
     inkscape:pageshadow="2"
     inkscape:window-width="1920"
     inkscape:window-height="1018"
     id="namedview3682"
     showgrid="false"
     inkscape:zoom="1.1791667"
     inkscape:cx="521.2546"
     inkscape:cy="280.25855"
     inkscape:window-x="-8"
     inkscape:window-y="-8"
     inkscape:window-maximized="1"
     inkscape:current-layer="g3688" /><g
     id="g3688"
     inkscape:groupmode="layer"
     inkscape:label="PLC Programmer Box Layout"
     transform="matrix(1.3333333,0,0,-1.3333333,0,500)"><path
       d="m 1.9506531,335.08552 c 0,5.01 4.06,9.07 9.0699999,9.07 H 171.44065 c 5.01,0 9.07,-4.06 9.07,-9.07 V 32.945517 c 0,-5.01 -4.06,-9.07 -9.07,-9.07 H 11.020653 c -5.0099999,0 -9.0699999,4.06 -9.0699999,9.07 z"
       style="fill:#262626;fill-opacity:1;fill-rule:evenodd;stroke:none"
       id="path3700"
       inkscape:connector-curvature="0" /><path
       d="m 1.9506531,335.08552 c 0,5.01 4.06,9.07 9.0699999,9.07 H 171.44065 c 5.01,0 9.07,-4.06 9.07,-9.07 V 32.945517 c 0,-5.01 -4.06,-9.07 -9.07,-9.07 H 11.020653 c -5.0099999,0 -9.0699999,4.06 -9.0699999,9.07 z"
       style="fill:none;stroke:#000000;stroke-width:0.95999998;stroke-linecap:butt;stroke-linejoin:round;stroke-miterlimit:10;stroke-dasharray:none;stroke-opacity:1"
       id="path3702"
       inkscape:connector-curvature="0" /><path
       d="m 10.950653,328.66552 c 0,4.84 3.93,8.77 8.77,8.77 H 163.70065 c 4.84,0 8.77,-3.93 8.77,-8.77 V 40.085517 c 0,-4.84 -3.93,-8.77 -8.77,-8.77 H 19.720653 c -4.84,0 -8.77,3.93 -8.77,8.77 z"
       style="fill:#262626;fill-opacity:1;fill-rule:evenodd;stroke:none"
       id="path3704"
       inkscape:connector-curvature="0" /><path
       d="m 10.950653,328.66552 c 0,4.84 3.93,8.77 8.77,8.77 H 163.70065 c 4.84,0 8.77,-3.93 8.77,-8.77 V 40.085517 c 0,-4.84 -3.93,-8.77 -8.77,-8.77 H 19.720653 c -4.84,0 -8.77,3.93 -8.77,8.77 z"
       style="fill:none;stroke:#000000;stroke-width:0.95999998;stroke-linecap:butt;stroke-linejoin:round;stroke-miterlimit:10;stroke-dasharray:none;stroke-opacity:1"
       id="path3706"
       inkscape:connector-curvature="0" /><g
       id="g3708"
       transform="translate(-136.04935,-99.844479)"><g
         id="g3710"
         clip-path="url(#clipPath3714)"><path
           d="M 182.16,444.96 H 270 v 2.76 h -87.84 z"
           style="fill:#bfbfbf;fill-opacity:1;fill-rule:evenodd;stroke:none"
           id="path3716"
           inkscape:connector-curvature="0" /></g></g><g
       id="g3718"
       transform="translate(-136.04935,-99.844479)"><g
         id="g3720"
         clip-path="url(#clipPath3724)"><path
           d="M 182.16,444.96 H 270 v 2.76 h -87.84 z"
           style="fill:none;stroke:#000000;stroke-width:0.95999998;stroke-linecap:butt;stroke-linejoin:round;stroke-miterlimit:10;stroke-dasharray:none;stroke-opacity:1"
           id="path3726"
           inkscape:connector-curvature="0" /></g></g><g
       id="g3728"
       transform="translate(-136.04935,-99.844479)"><g
         id="g3730"
         clip-path="url(#clipPath3734)"><path
           d="m 201,447.12 h 51 v 14.16 h -51 z"
           style="fill:#bfbfbf;fill-opacity:1;fill-rule:evenodd;stroke:none"
           id="path3736"
           inkscape:connector-curvature="0" /></g></g><g
       id="g3738"
       transform="translate(-136.04935,-99.844479)"><g
         id="g3740"
         clip-path="url(#clipPath3744)"><path
           d="m 201,447.12 h 51 v 14.16 h -51 z"
           style="fill:none;stroke:#000000;stroke-width:0.95999998;stroke-linecap:butt;stroke-linejoin:round;stroke-miterlimit:10;stroke-dasharray:none;stroke-opacity:1"
           id="path3746"
           inkscape:connector-curvature="0" /></g></g><path
       d="m 195.39065,335.08552 c 0,5.01 4.06,9.07 9.07,9.07 h 160.42 c 5.01,0 9.07,-4.06 9.07,-9.07 V 32.945517 c 0,-5.01 -4.06,-9.07 -9.07,-9.07 h -160.42 c -5.01,0 -9.07,4.06 -9.07,9.07 z"
       style="fill:#262626;fill-opacity:1;fill-rule:evenodd;stroke:none"
       id="path3748"
       inkscape:connector-curvature="0" /><path
       d="m 195.39065,335.08552 c 0,5.01 4.06,9.07 9.07,9.07 h 160.42 c 5.01,0 9.07,-4.06 9.07,-9.07 V 32.945517 c 0,-5.01 -4.06,-9.07 -9.07,-9.07 h -160.42 c -5.01,0 -9.07,4.06 -9.07,9.07 z"
       style="fill:none;stroke:#000000;stroke-width:0.95999998;stroke-linecap:butt;stroke-linejoin:round;stroke-miterlimit:10;stroke-dasharray:none;stroke-opacity:1"
       id="path3750"
       inkscape:connector-curvature="0" /><path
       d="m 247.95065,194.15552 c 0,6.63 5.37,12 12,12 6.63,0 12,-5.37 12,-12 0,-6.63 -5.37,-12 -12,-12 -6.63,0 -12,5.37 -12,12 z"
       style="fill:#262626;fill-opacity:1;fill-rule:evenodd;stroke:none"
       id="path3752"
       inkscape:connector-curvature="0" /><path
       d="m 247.95065,194.15552 c 0,6.63 5.37,12 12,12 6.63,0 12,-5.37 12,-12 0,-6.63 -5.37,-12 -12,-12 -6.63,0 -12,5.37 -12,12 z"
       style="fill:none;stroke:#000000;stroke-width:0.95999998;stroke-linecap:butt;stroke-linejoin:round;stroke-miterlimit:10;stroke-dasharray:none;stroke-opacity:1"
       id="path3754"
       inkscape:connector-curvature="0" /><path
       d="m 253.11065,193.91552 c 0,3.91 3.17,7.08 7.08,7.08 3.91,0 7.08,-3.17 7.08,-7.08 0,-3.91 -3.17,-7.08 -7.08,-7.08 -3.91,0 -7.08,3.17 -7.08,7.08 z"
       style="fill:#ff5050;fill-opacity:1;fill-rule:evenodd;stroke:none"
       id="path3756"
       inkscape:connector-curvature="0" /><path
       d="m 253.11065,193.91552 c 0,3.91 3.17,7.08 7.08,7.08 3.91,0 7.08,-3.17 7.08,-7.08 0,-3.91 -3.17,-7.08 -7.08,-7.08 -3.91,0 -7.08,3.17 -7.08,7.08 z"
       style="fill:none;stroke:#ff0000;stroke-width:0.95999998;stroke-linecap:butt;stroke-linejoin:round;stroke-miterlimit:10;stroke-dasharray:none;stroke-opacity:1"
       id="path3758"
       inkscape:connector-curvature="0" /><path
       d="m 295.95065,194.15552 c 0,6.63 5.37,12 12,12 6.63,0 12,-5.37 12,-12 0,-6.63 -5.37,-12 -12,-12 -6.63,0 -12,5.37 -12,12 z"
       style="fill:#262626;fill-opacity:1;fill-rule:evenodd;stroke:none"
       id="path3760"
       inkscape:connector-curvature="0" /><path
       d="m 295.95065,194.15552 c 0,6.63 5.37,12 12,12 6.63,0 12,-5.37 12,-12 0,-6.63 -5.37,-12 -12,-12 -6.63,0 -12,5.37 -12,12 z"
       style="fill:none;stroke:#000000;stroke-width:0.95999998;stroke-linecap:butt;stroke-linejoin:round;stroke-miterlimit:10;stroke-dasharray:none;stroke-opacity:1"
       id="path3762"
       inkscape:connector-curvature="0" /><path
       d="m 301.11065,193.91552 c 0,3.91 3.17,7.08 7.08,7.08 3.91,0 7.08,-3.17 7.08,-7.08 0,-3.91 -3.17,-7.08 -7.08,-7.08 -3.91,0 -7.08,3.17 -7.08,7.08 z"
       style="fill:#92d050;fill-opacity:1;fill-rule:evenodd;stroke:none"
       id="path3764"
       inkscape:connector-curvature="0" /><path
       d="m 301.11065,193.91552 c 0,3.91 3.17,7.08 7.08,7.08 3.91,0 7.08,-3.17 7.08,-7.08 0,-3.91 -3.17,-7.08 -7.08,-7.08 -3.91,0 -7.08,3.17 -7.08,7.08 z"
       style="fill:none;stroke:#00b050;stroke-width:0.95999998;stroke-linecap:butt;stroke-linejoin:round;stroke-miterlimit:10;stroke-dasharray:none;stroke-opacity:1"
       id="path3766"
       inkscape:connector-curvature="0" /><path
       d="m 217.95065,135.47552 c 0,12.53 10.15,22.68 22.68,22.68 12.53,0 22.68,-10.15 22.68,-22.68 0,-12.53 -10.15,-22.68 -22.68,-22.68 -12.53,0 -22.68,10.15 -22.68,22.68 z"
       style="fill:#262626;fill-opacity:1;fill-rule:evenodd;stroke:none"
       id="path3768"
       inkscape:connector-curvature="0" /><path
       d="m 217.95065,135.47552 c 0,12.53 10.15,22.68 22.68,22.68 12.53,0 22.68,-10.15 22.68,-22.68 0,-12.53 -10.15,-22.68 -22.68,-22.68 -12.53,0 -22.68,10.15 -22.68,22.68 z"
       style="fill:none;stroke:#000000;stroke-width:0.95999998;stroke-linecap:butt;stroke-linejoin:round;stroke-miterlimit:10;stroke-dasharray:none;stroke-opacity:1"
       id="path3770"
       inkscape:connector-curvature="0" /><g
       id="g3772"
       transform="translate(-136.04935,-99.844479)"><path
         d="m 359.52,235.32 c 0,9.34 7.71,16.92 17.22,16.92 9.51,0 17.22,-7.58 17.22,-16.92 0,-9.34 -7.71,-16.92 -17.22,-16.92 -9.51,0 -17.22,7.58 -17.22,16.92 z"
         style="fill:url(#radialGradient3780);fill-opacity:1;fill-rule:evenodd;stroke:none"
         id="path3782"
         inkscape:connector-curvature="0" /></g><path
       d="m 223.47065,135.47552 c 0,9.34 7.71,16.92 17.22,16.92 9.51,0 17.22,-7.58 17.22,-16.92 0,-9.34 -7.71,-16.92 -17.22,-16.92 -9.51,0 -17.22,7.58 -17.22,16.92 z"
       style="fill:none;stroke:#ff0000;stroke-width:0.95999998;stroke-linecap:butt;stroke-linejoin:round;stroke-miterlimit:10;stroke-dasharray:none;stroke-opacity:1"
       id="path3784"
       inkscape:connector-curvature="0" /><path
       d="m 306.15065,135.23552 c 0,12.53 10.15,22.68 22.68,22.68 12.53,0 22.68,-10.15 22.68,-22.68 0,-12.53 -10.15,-22.68 -22.68,-22.68 -12.53,0 -22.68,10.15 -22.68,22.68 z"
       style="fill:#262626;fill-opacity:1;fill-rule:evenodd;stroke:none"
       id="path3786"
       inkscape:connector-curvature="0" /><path
       d="m 306.15065,135.23552 c 0,12.53 10.15,22.68 22.68,22.68 12.53,0 22.68,-10.15 22.68,-22.68 0,-12.53 -10.15,-22.68 -22.68,-22.68 -12.53,0 -22.68,10.15 -22.68,22.68 z"
       style="fill:none;stroke:#000000;stroke-width:0.95999998;stroke-linecap:butt;stroke-linejoin:round;stroke-miterlimit:10;stroke-dasharray:none;stroke-opacity:1"
       id="path3788"
       inkscape:connector-curvature="0" /><g
       id="g3790"
       transform="translate(-136.04935,-99.844479)"><path
         d="m 447.6,235.08 c 0,9.34 7.74,16.92 17.28,16.92 9.54,0 17.28,-7.58 17.28,-16.92 0,-9.34 -7.74,-16.92 -17.28,-16.92 -9.54,0 -17.28,7.58 -17.28,16.92 z"
         style="fill:url(#radialGradient3798);fill-opacity:1;fill-rule:evenodd;stroke:none"
         id="path3800"
         inkscape:connector-curvature="0" /></g><path
       d="m 311.55065,135.23552 c 0,9.34 7.74,16.92 17.28,16.92 9.54,0 17.28,-7.58 17.28,-16.92 0,-9.34 -7.74,-16.92 -17.28,-16.92 -9.54,0 -17.28,7.58 -17.28,16.92 z"
       style="fill:none;stroke:#ff0000;stroke-width:0.95999998;stroke-linecap:butt;stroke-linejoin:round;stroke-miterlimit:10;stroke-dasharray:none;stroke-opacity:1"
       id="path3802"
       inkscape:connector-curvature="0" /><path
       d="m 217.95065,71.875517 c 0,12.53 10.15,22.68 22.68,22.68 12.53,0 22.68,-10.15 22.68,-22.68 0,-12.53 -10.15,-22.68 -22.68,-22.68 -12.53,0 -22.68,10.15 -22.68,22.68 z"
       style="fill:#262626;fill-opacity:1;fill-rule:evenodd;stroke:none"
       id="path3804"
       inkscape:connector-curvature="0" /><path
       d="m 217.95065,71.875517 c 0,12.53 10.15,22.68 22.68,22.68 12.53,0 22.68,-10.15 22.68,-22.68 0,-12.53 -10.15,-22.68 -22.68,-22.68 -12.53,0 -22.68,10.15 -22.68,22.68 z"
       style="fill:none;stroke:#000000;stroke-width:0.95999998;stroke-linecap:butt;stroke-linejoin:round;stroke-miterlimit:10;stroke-dasharray:none;stroke-opacity:1"
       id="path3806"
       inkscape:connector-curvature="0" /><g
       id="g3808"
       transform="translate(-136.04935,-99.844479)"><path
         d="m 359.52,171.72 c 0,9.34 7.71,16.92 17.22,16.92 9.51,0 17.22,-7.58 17.22,-16.92 0,-9.34 -7.71,-16.92 -17.22,-16.92 -9.51,0 -17.22,7.58 -17.22,16.92 z"
         style="fill:url(#radialGradient3816);fill-opacity:1;fill-rule:evenodd;stroke:none"
         id="path3818"
         inkscape:connector-curvature="0" /></g><path
       d="m 223.47065,71.875517 c 0,9.34 7.71,16.92 17.22,16.92 9.51,0 17.22,-7.58 17.22,-16.92 0,-9.34 -7.71,-16.92 -17.22,-16.92 -9.51,0 -17.22,7.58 -17.22,16.92 z"
       style="fill:none;stroke:#ff0000;stroke-width:0.95999998;stroke-linecap:butt;stroke-linejoin:round;stroke-miterlimit:10;stroke-dasharray:none;stroke-opacity:1"
       id="path3820"
       inkscape:connector-curvature="0" /><path
       d="m 306.15065,71.515517 c 0,12.53 10.15,22.68 22.68,22.68 12.53,0 22.68,-10.15 22.68,-22.68 0,-12.53 -10.15,-22.68 -22.68,-22.68 -12.53,0 -22.68,10.15 -22.68,22.68 z"
       style="fill:#262626;fill-opacity:1;fill-rule:evenodd;stroke:none"
       id="path3822"
       inkscape:connector-curvature="0" /><path
       d="m 306.15065,71.515517 c 0,12.53 10.15,22.68 22.68,22.68 12.53,0 22.68,-10.15 22.68,-22.68 0,-12.53 -10.15,-22.68 -22.68,-22.68 -12.53,0 -22.68,10.15 -22.68,22.68 z"
       style="fill:none;stroke:#000000;stroke-width:0.95999998;stroke-linecap:butt;stroke-linejoin:round;stroke-miterlimit:10;stroke-dasharray:none;stroke-opacity:1"
       id="path3824"
       inkscape:connector-curvature="0" /><g
       id="g3826"
       transform="translate(-136.04935,-99.844479)"><path
         d="m 447.6,171.36 c 0,9.34 7.74,16.92 17.28,16.92 9.54,0 17.28,-7.58 17.28,-16.92 0,-9.34 -7.74,-16.92 -17.28,-16.92 -9.54,0 -17.28,7.58 -17.28,16.92 z"
         style="fill:url(#radialGradient3834);fill-opacity:1;fill-rule:evenodd;stroke:none"
         id="path3836"
         inkscape:connector-curvature="0" /></g><path
       d="m 311.55065,71.515517 c 0,9.34 7.74,16.92 17.28,16.92 9.54,0 17.28,-7.58 17.28,-16.92 0,-9.34 -7.74,-16.92 -17.28,-16.92 -9.54,0 -17.28,7.58 -17.28,16.92 z"
       style="fill:none;stroke:#ff0000;stroke-width:0.95999998;stroke-linecap:butt;stroke-linejoin:round;stroke-miterlimit:10;stroke-dasharray:none;stroke-opacity:1"
       id="path3838"
       inkscape:connector-curvature="0" /><path
       d="m 261.51065,249.47552 c 0,12.53 10.15,22.68 22.68,22.68 12.53,0 22.68,-10.15 22.68,-22.68 0,-12.53 -10.15,-22.68 -22.68,-22.68 -12.53,0 -22.68,10.15 -22.68,22.68 z"
       style="fill:#262626;fill-opacity:1;fill-rule:evenodd;stroke:none"
       id="path3840"
       inkscape:connector-curvature="0" /><path
       d="m 261.51065,249.47552 c 0,12.53 10.15,22.68 22.68,22.68 12.53,0 22.68,-10.15 22.68,-22.68 0,-12.53 -10.15,-22.68 -22.68,-22.68 -12.53,0 -22.68,10.15 -22.68,22.68 z"
       style="fill:none;stroke:#000000;stroke-width:0.95999998;stroke-linecap:butt;stroke-linejoin:round;stroke-miterlimit:10;stroke-dasharray:none;stroke-opacity:1"
       id="path3842"
       inkscape:connector-curvature="0" /><g
       id="g3844"
       transform="translate(-136.04935,-99.844479)"><path
         d="m 403.08,349.32 c 0,9.34 7.74,16.92 17.28,16.92 9.54,0 17.28,-7.58 17.28,-16.92 0,-9.34 -7.74,-16.92 -17.28,-16.92 -9.54,0 -17.28,7.58 -17.28,16.92 z"
         style="fill:url(#radialGradient3852);fill-opacity:1;fill-rule:evenodd;stroke:none"
         id="path3854"
         inkscape:connector-curvature="0" /></g><path
       d="m 267.03065,249.47552 c 0,9.34 7.74,16.92 17.28,16.92 9.54,0 17.28,-7.58 17.28,-16.92 0,-9.34 -7.74,-16.92 -17.28,-16.92 -9.54,0 -17.28,7.58 -17.28,16.92 z"
       style="fill:none;stroke:#ff0000;stroke-width:0.95999998;stroke-linecap:butt;stroke-linejoin:round;stroke-miterlimit:10;stroke-dasharray:none;stroke-opacity:1"
       id="path3856"
       inkscape:connector-curvature="0" /><path
       d="m 247.95065,308.15552 c 0,6.63 5.37,12 12,12 6.63,0 12,-5.37 12,-12 0,-6.63 -5.37,-12 -12,-12 -6.63,0 -12,5.37 -12,12 z"
       style="fill:#262626;fill-opacity:1;fill-rule:evenodd;stroke:none"
       id="path3858"
       inkscape:connector-curvature="0" /><path
       d="m 247.95065,308.15552 c 0,6.63 5.37,12 12,12 6.63,0 12,-5.37 12,-12 0,-6.63 -5.37,-12 -12,-12 -6.63,0 -12,5.37 -12,12 z"
       style="fill:none;stroke:#000000;stroke-width:0.95999998;stroke-linecap:butt;stroke-linejoin:round;stroke-miterlimit:10;stroke-dasharray:none;stroke-opacity:1"
       id="path3860"
       inkscape:connector-curvature="0" /><path
       d="m 253.11065,307.91552 c 0,3.91 3.17,7.08 7.08,7.08 3.91,0 7.08,-3.17 7.08,-7.08 0,-3.91 -3.17,-7.08 -7.08,-7.08 -3.91,0 -7.08,3.17 -7.08,7.08 z"
       style="fill:#ff5050;fill-opacity:1;fill-rule:evenodd;stroke:none"
       id="path3862"
       inkscape:connector-curvature="0" /><path
       d="m 253.11065,307.91552 c 0,3.91 3.17,7.08 7.08,7.08 3.91,0 7.08,-3.17 7.08,-7.08 0,-3.91 -3.17,-7.08 -7.08,-7.08 -3.91,0 -7.08,3.17 -7.08,7.08 z"
       style="fill:none;stroke:#ff0000;stroke-width:0.95999998;stroke-linecap:butt;stroke-linejoin:round;stroke-miterlimit:10;stroke-dasharray:none;stroke-opacity:1"
       id="path3864"
       inkscape:connector-curvature="0" /><path
       d="m 295.95065,308.15552 c 0,6.63 5.37,12 12,12 6.63,0 12,-5.37 12,-12 0,-6.63 -5.37,-12 -12,-12 -6.63,0 -12,5.37 -12,12 z"
       style="fill:#262626;fill-opacity:1;fill-rule:evenodd;stroke:none"
       id="path3866"
       inkscape:connector-curvature="0" /><path
       d="m 295.95065,308.15552 c 0,6.63 5.37,12 12,12 6.63,0 12,-5.37 12,-12 0,-6.63 -5.37,-12 -12,-12 -6.63,0 -12,5.37 -12,12 z"
       style="fill:none;stroke:#000000;stroke-width:0.95999998;stroke-linecap:butt;stroke-linejoin:round;stroke-miterlimit:10;stroke-dasharray:none;stroke-opacity:1"
       id="path3868"
       inkscape:connector-curvature="0" /><path
       d="m 301.11065,307.91552 c 0,3.91 3.17,7.08 7.08,7.08 3.91,0 7.08,-3.17 7.08,-7.08 0,-3.91 -3.17,-7.08 -7.08,-7.08 -3.91,0 -7.08,3.17 -7.08,7.08 z"
       style="fill:#92d050;fill-opacity:1;fill-rule:evenodd;stroke:none"
       id="path3870"
       inkscape:connector-curvature="0" /><path
       d="m 301.11065,307.91552 c 0,3.91 3.17,7.08 7.08,7.08 3.91,0 7.08,-3.17 7.08,-7.08 0,-3.91 -3.17,-7.08 -7.08,-7.08 -3.91,0 -7.08,3.17 -7.08,7.08 z"
       style="fill:none;stroke:#00b050;stroke-width:0.95999998;stroke-linecap:butt;stroke-linejoin:round;stroke-miterlimit:10;stroke-dasharray:none;stroke-opacity:1"
       id="path3872"
       inkscape:connector-curvature="0" /><path
       d="m 12.030653,314.65552 c 0,2.51 2.03,4.54 4.54,4.54 h 34.24 c 2.51,0 4.54,-2.03 4.54,-4.54 v -115.6 c 0,-2.51 -2.03,-4.54 -4.54,-4.54 h -34.24 c -2.51,0 -4.54,2.03 -4.54,4.54 z"
       style="fill:#31859c;fill-opacity:1;fill-rule:evenodd;stroke:none"
       id="path3874"
       inkscape:connector-curvature="0" /><path
       d="m 12.030653,314.65552 c 0,2.51 2.03,4.54 4.54,4.54 h 34.24 c 2.51,0 4.54,-2.03 4.54,-4.54 v -115.6 c 0,-2.51 -2.03,-4.54 -4.54,-4.54 h -34.24 c -2.51,0 -4.54,2.03 -4.54,4.54 z"
       style="fill:none;stroke:#000000;stroke-width:0.95999998;stroke-linecap:butt;stroke-linejoin:round;stroke-miterlimit:10;stroke-dasharray:none;stroke-opacity:1"
       id="path3876"
       inkscape:connector-curvature="0" /><path
       d="m 15.630653,319.19552 h 35.88 v 17.04 h -35.88 z"
       style="fill:#404040;fill-opacity:1;fill-rule:evenodd;stroke:none"
       id="path3878"
       inkscape:connector-curvature="0" /><path
       d="m 15.630653,319.19552 h 35.88 v 17.04 h -35.88 z"
       style="fill:none;stroke:#000000;stroke-width:0.95999998;stroke-linecap:butt;stroke-linejoin:round;stroke-miterlimit:10;stroke-dasharray:none;stroke-opacity:1"
       id="path3880"
       inkscape:connector-curvature="0" /><g
       id="g3882"
       transform="translate(-136.04935,-99.844479)"><g
         id="g3884"
         clip-path="url(#clipPath3888)"><text
           transform="matrix(-4.4e-8,1,1,4.4e-8,172.01,332.11)"
           style="font-variant:normal;font-weight:normal;font-size:12px;font-family:Calibri;-inkscape-font-specification:Calibri;writing-mode:lr-tb;fill:#000000;fill-opacity:1;fill-rule:nonzero;stroke:none"
           id="text3892"><tspan
             x="0 6.132 12.984 15.624 22.152 27.768 31.728001 35.688 41.664001 45.875999"
             y="0"
             sodipodi:role="line"
             id="tspan3890">9V Battery</tspan></text>
</g></g><path
       d="m 85.950653,311.35552 c 0,4.93 3.99,8.92 8.92,8.92 h 67.239997 c 4.93,0 8.92,-3.99 8.92,-8.92 v -166.36 c 0,-4.93 -3.99,-8.92 -8.92,-8.92 H 94.870653 c -4.93,0 -8.92,3.99 -8.92,8.92 z"
       style="fill:#00b050;fill-opacity:1;fill-rule:evenodd;stroke:none"
       id="path3894"
       inkscape:connector-curvature="0" /><path
       d="m 85.950653,311.35552 c 0,4.93 3.99,8.92 8.92,8.92 h 67.239997 c 4.93,0 8.92,-3.99 8.92,-8.92 v -166.36 c 0,-4.93 -3.99,-8.92 -8.92,-8.92 H 94.870653 c -4.93,0 -8.92,3.99 -8.92,8.92 z"
       style="fill:none;stroke:#385d8a;stroke-width:0.95999998;stroke-linecap:butt;stroke-linejoin:round;stroke-miterlimit:10;stroke-dasharray:none;stroke-opacity:1"
       id="path3896"
       inkscape:connector-curvature="0" /><path
       d="m 145.23065,151.07552 h 27.36 v 43.2 h -27.36 z"
       style="fill:#d9d9d9;fill-opacity:1;fill-rule:evenodd;stroke:none"
       id="path3898"
       inkscape:connector-curvature="0" /><path
       d="m 145.23065,151.07552 h 27.36 v 43.2 h -27.36 z"
       style="fill:none;stroke:#385d8a;stroke-width:0.95999998;stroke-linecap:butt;stroke-linejoin:round;stroke-miterlimit:10;stroke-dasharray:none;stroke-opacity:1"
       id="path3900"
       inkscape:connector-curvature="0" /><path
       d="m 151.95065,272.75552 h 18.72 v 29.52 h -18.72 z"
       style="fill:#d9d9d9;fill-opacity:1;fill-rule:evenodd;stroke:none"
       id="path3902"
       inkscape:connector-curvature="0" /><path
       d="m 151.95065,272.75552 h 18.72 v 29.52 h -18.72 z"
       style="fill:none;stroke:#385d8a;stroke-width:0.95999998;stroke-linecap:butt;stroke-linejoin:round;stroke-miterlimit:10;stroke-dasharray:none;stroke-opacity:1"
       id="path3904"
       inkscape:connector-curvature="0" /><path
       d="m 151.95065,236.27552 h 18.72 v 29.52 h -18.72 z"
       style="fill:#d9d9d9;fill-opacity:1;fill-rule:evenodd;stroke:none"
       id="path3906"
       inkscape:connector-curvature="0" /><path
       d="m 151.95065,236.27552 h 18.72 v 29.52 h -18.72 z"
       style="fill:none;stroke:#385d8a;stroke-width:0.95999998;stroke-linecap:butt;stroke-linejoin:round;stroke-miterlimit:10;stroke-dasharray:none;stroke-opacity:1"
       id="path3908"
       inkscape:connector-curvature="0" /><g
       id="g3910"
       transform="translate(-136.04935,-99.844479)"><g
         id="g3912"
         clip-path="url(#clipPath3916)"><text
           transform="matrix(1,0,0,-1,233.38,402.17)"
           style="font-variant:normal;font-weight:normal;font-size:12px;font-family:Calibri;-inkscape-font-specification:Calibri;writing-mode:lr-tb;fill:#000000;fill-opacity:1;fill-rule:nonzero;stroke:none"
           id="text3920"><tspan
             x="0 6.5159998 12.264 16.92 23.268 29.615999 35.591999 39.804001 43.992001 49.428001"
             y="0"
             sodipodi:role="line"
             id="tspan3918">Raspberry </tspan></text>
</g></g><g
       id="g3922"
       transform="translate(-136.04935,-99.844479)"><g
         id="g3924"
         clip-path="url(#clipPath3928)"><text
           transform="matrix(1,0,0,-1,233.38,387.77)"
           style="font-variant:normal;font-weight:normal;font-size:12px;font-family:Calibri;-inkscape-font-specification:Calibri;writing-mode:lr-tb;fill:#000000;fill-opacity:1;fill-rule:nonzero;stroke:none"
           id="text3932"><tspan
             x="0 6.204 8.9639997 11.748 17.268 23.243999 27.228001"
             y="0"
             sodipodi:role="line"
             id="tspan3930">Pi Zero</tspan></text>
</g></g><g
       id="g3934"
       transform="translate(-136.04935,-99.844479)"><g
         id="g3936"
         clip-path="url(#clipPath3940)"><path
           d="M 156,240.12 V 137.54 c 10.59,-0.16 21.18,-0.33 31.78,-0.5 l 5.68,4.82 v 5.78 c 19.15,-0.17 39.39,0.16 58.54,0 v 49.13 c -19.01,-0.17 -39.53,0.17 -58.54,0 v 43.35 z"
           style="fill:#00b050;fill-opacity:1;fill-rule:evenodd;stroke:none"
           id="path3942"
           inkscape:connector-curvature="0" /></g></g><g
       id="g3944"
       transform="translate(-136.04935,-99.844479)"><g
         id="g3946"
         clip-path="url(#clipPath3950)"><path
           d="M 156,240.12 V 137.54 c 10.59,-0.16 21.18,-0.33 31.78,-0.5 l 5.68,4.82 v 5.78 c 19.15,-0.17 39.39,0.16 58.54,0 v 49.13 c -19.01,-0.17 -39.53,0.17 -58.54,0 v 43.35 z"
           style="fill:none;stroke:#000000;stroke-width:0.72000003;stroke-linecap:butt;stroke-linejoin:round;stroke-miterlimit:10;stroke-dasharray:none;stroke-opacity:1"
           id="path3952"
           inkscape:connector-curvature="0" /></g></g><g
       id="g3954"
       transform="translate(-136.04935,-99.844479)"><g
         id="g3956"
         clip-path="url(#clipPath3960)"><text
           transform="matrix(-4.4e-8,1,1,4.4e-8,207.86,158.86)"
           style="font-variant:normal;font-weight:normal;font-size:12px;font-family:Calibri;-inkscape-font-specification:Calibri;writing-mode:lr-tb;fill:#000000;fill-opacity:1;fill-rule:nonzero;stroke:none"
           id="text3964"><tspan
             x="0 10.308 16.632 22.896"
             y="0"
             sodipodi:role="line"
             id="tspan3962">MoPi</tspan></text>
</g></g><path
       d="m 103.95065,175.79552 h 66 v 96.36 h -66 z"
       style="fill:#17375e;fill-opacity:1;fill-rule:evenodd;stroke:none"
       id="path3966"
       inkscape:connector-curvature="0" /><path
       d="m 103.95065,175.79552 h 66 v 96.36 h -66 z"
       style="fill:none;stroke:#385d8a;stroke-width:0.95999998;stroke-linecap:butt;stroke-linejoin:round;stroke-miterlimit:10;stroke-dasharray:none;stroke-opacity:1"
       id="path3968"
       inkscape:connector-curvature="0" /><g
       id="g3970"
       transform="translate(-136.04935,-99.844479)"><g
         id="g3972"
         clip-path="url(#clipPath3976)"><text
           transform="matrix(1,0,0,-1,256.92,319.68)"
           style="font-variant:normal;font-weight:normal;font-size:12px;font-family:Calibri;-inkscape-font-specification:Calibri;writing-mode:lr-tb;fill:#ffffff;fill-opacity:1;fill-rule:nonzero;stroke:none"
           id="text3980"><tspan
             x="0 10.308 17.256001 23.483999 29.615999 35.700001"
             y="0"
             sodipodi:role="line"
             id="tspan3978">MAX232</tspan></text>
</g></g><path
       d="m 106.47065,228.47552 h 7.8 v 7.68 h -7.8 z"
       style="fill:#254061;fill-opacity:1;fill-rule:evenodd;stroke:none"
       id="path3982"
       inkscape:connector-curvature="0" /><path
       d="m 106.47065,228.47552 h 7.8 v 7.68 h -7.8 z"
       style="fill:none;stroke:#ffffff;stroke-width:0.95999998;stroke-linecap:butt;stroke-linejoin:round;stroke-miterlimit:10;stroke-dasharray:none;stroke-opacity:1"
       id="path3984"
       inkscape:connector-curvature="0" /><path
       d="m 108.75065,232.43552 c 0,0.86 0.7,1.56 1.56,1.56 0.86,0 1.56,-0.7 1.56,-1.56 0,-0.86 -0.7,-1.56 -1.56,-1.56 -0.86,0 -1.56,0.7 -1.56,1.56 z"
       style="fill:#254061;fill-opacity:1;fill-rule:evenodd;stroke:none"
       id="path3986"
       inkscape:connector-curvature="0" /><path
       d="m 108.75065,232.43552 c 0,0.86 0.7,1.56 1.56,1.56 0.86,0 1.56,-0.7 1.56,-1.56 0,-0.86 -0.7,-1.56 -1.56,-1.56 -0.86,0 -1.56,0.7 -1.56,1.56 z"
       style="fill:none;stroke:#ffffff;stroke-width:0.95999998;stroke-linecap:butt;stroke-linejoin:round;stroke-miterlimit:10;stroke-dasharray:none;stroke-opacity:1"
       id="path3988"
       inkscape:connector-curvature="0" /><path
       d="m 106.47065,220.67552 h 7.8 v 7.8 h -7.8 z"
       style="fill:#254061;fill-opacity:1;fill-rule:evenodd;stroke:none"
       id="path3990"
       inkscape:connector-curvature="0" /><path
       d="m 106.47065,220.67552 h 7.8 v 7.8 h -7.8 z"
       style="fill:none;stroke:#ffffff;stroke-width:0.95999998;stroke-linecap:butt;stroke-linejoin:round;stroke-miterlimit:10;stroke-dasharray:none;stroke-opacity:1"
       id="path3992"
       inkscape:connector-curvature="0" /><path
       d="m 108.75065,224.75552 c 0,0.86 0.7,1.56 1.56,1.56 0.86,0 1.56,-0.7 1.56,-1.56 0,-0.86 -0.7,-1.56 -1.56,-1.56 -0.86,0 -1.56,0.7 -1.56,1.56 z"
       style="fill:#254061;fill-opacity:1;fill-rule:evenodd;stroke:none"
       id="path3994"
       inkscape:connector-curvature="0" /><path
       d="m 108.75065,224.75552 c 0,0.86 0.7,1.56 1.56,1.56 0.86,0 1.56,-0.7 1.56,-1.56 0,-0.86 -0.7,-1.56 -1.56,-1.56 -0.86,0 -1.56,0.7 -1.56,1.56 z"
       style="fill:none;stroke:#ffffff;stroke-width:0.95999998;stroke-linecap:butt;stroke-linejoin:round;stroke-miterlimit:10;stroke-dasharray:none;stroke-opacity:1"
       id="path3996"
       inkscape:connector-curvature="0" /><path
       d="m 106.47065,212.99552 h 7.8 v 7.68 h -7.8 z"
       style="fill:#254061;fill-opacity:1;fill-rule:evenodd;stroke:none"
       id="path3998"
       inkscape:connector-curvature="0" /><path
       d="m 106.47065,212.99552 h 7.8 v 7.68 h -7.8 z"
       style="fill:none;stroke:#ffffff;stroke-width:0.95999998;stroke-linecap:butt;stroke-linejoin:round;stroke-miterlimit:10;stroke-dasharray:none;stroke-opacity:1"
       id="path4000"
       inkscape:connector-curvature="0" /><path
       d="m 108.75065,217.01552 c 0,0.83 0.7,1.5 1.56,1.5 0.86,0 1.56,-0.67 1.56,-1.5 0,-0.83 -0.7,-1.5 -1.56,-1.5 -0.86,0 -1.56,0.67 -1.56,1.5 z"
       style="fill:#254061;fill-opacity:1;fill-rule:evenodd;stroke:none"
       id="path4002"
       inkscape:connector-curvature="0" /><path
       d="m 108.75065,217.01552 c 0,0.83 0.7,1.5 1.56,1.5 0.86,0 1.56,-0.67 1.56,-1.5 0,-0.83 -0.7,-1.5 -1.56,-1.5 -0.86,0 -1.56,0.67 -1.56,1.5 z"
       style="fill:none;stroke:#ffffff;stroke-width:0.95999998;stroke-linecap:butt;stroke-linejoin:round;stroke-miterlimit:10;stroke-dasharray:none;stroke-opacity:1"
       id="path4004"
       inkscape:connector-curvature="0" /><path
       d="m 106.47065,205.31552 h 7.8 v 7.68 h -7.8 z"
       style="fill:#254061;fill-opacity:1;fill-rule:evenodd;stroke:none"
       id="path4006"
       inkscape:connector-curvature="0" /><path
       d="m 106.47065,205.31552 h 7.8 v 7.68 h -7.8 z"
       style="fill:none;stroke:#ffffff;stroke-width:0.95999998;stroke-linecap:butt;stroke-linejoin:round;stroke-miterlimit:10;stroke-dasharray:none;stroke-opacity:1"
       id="path4008"
       inkscape:connector-curvature="0" /><path
       d="m 108.75065,209.27552 c 0,0.86 0.7,1.56 1.56,1.56 0.86,0 1.56,-0.7 1.56,-1.56 0,-0.86 -0.7,-1.56 -1.56,-1.56 -0.86,0 -1.56,0.7 -1.56,1.56 z"
       style="fill:#254061;fill-opacity:1;fill-rule:evenodd;stroke:none"
       id="path4010"
       inkscape:connector-curvature="0" /><path
       d="m 108.75065,209.27552 c 0,0.86 0.7,1.56 1.56,1.56 0.86,0 1.56,-0.7 1.56,-1.56 0,-0.86 -0.7,-1.56 -1.56,-1.56 -0.86,0 -1.56,0.7 -1.56,1.56 z"
       style="fill:none;stroke:#ffffff;stroke-width:0.95999998;stroke-linecap:butt;stroke-linejoin:round;stroke-miterlimit:10;stroke-dasharray:none;stroke-opacity:1"
       id="path4012"
       inkscape:connector-curvature="0" /></g></svg>